<?xml version="1.0" encoding="UTF-8"?><svg id="_圖層_1" xmlns="http://www.w3.org/2000/svg" viewBox="0 0 245.58 43.62"><defs><style>.cls-1{opacity:.5;}.cls-1,.cls-2{fill:#fff;}.cls-3{opacity:.3;}</style></defs><g class="cls-3"><rect class="cls-1" x="25.5" y="42.77" width="1.39" height=".85"/><path class="cls-1" d="M169.96,14.07v-1.39h-4.97v-5.29h-1.39v5.29h-4.89v-5.29h-1.39v5.29h-4.89v-5.29h-1.39v5.29h-4.89v-5.29h-1.39v5.29h-4.89v-5.29h-1.39v5.29h-4.89v-5.29h-1.39v5.29h-.67c.32.24.59.53.81.88,0,0,0,0,0,.01.1.16.18.33.26.51,0,.02.02.04.03.06.08.2.15.42.2.65.1.38.14.89.18,1.57v.24s-.82,0-.82,0v.81l.73.21c-.06.15-.12.27-.18.39-.05.1-.1.18-.15.27,0,.01-.01.02-.02.03-.05.08-.11.16-.17.24,0,0,0,0,0,.01-.06.08-.13.15-.2.23,0,0,0,0,0,0v.06h-.05s0,0-.01.01c-.68.67-1.64,1.02-2.82,1.02s-2.09-.33-2.78-1.02c-.14-.14-.26-.3-.36-.46-.09-.14-.17-.28-.25-.43v.88h-4.44c.01.25.04.48.07.74h-2.48c.03-.26.05-.5.07-.74h-2.22c-.34.32-.75.58-1.22.75-.04.01-.08.02-.11.03-.2.07-.41.13-.63.17-.26.05-.54.07-.83.07s-.58-.02-.84-.07c-.22-.04-.43-.1-.63-.17-.04-.01-.08-.02-.12-.03-.47-.17-.88-.43-1.22-.75,0,0,0,0,0,0h-2.59c-.15.15-.32.29-.5.41-.03.02-.05.03-.08.05-.17.1-.34.19-.53.27-.09.04-.19.06-.29.09-.15.04-.3.09-.46.12-.28.05-.57.08-.89.08-.29,0-.56-.02-.82-.07-.25-.04-.48-.11-.7-.18-.01,0-.03,0-.04-.01-.47-.17-.88-.43-1.21-.76h-1.02v-2.07c-.05-.27-.07-.56-.07-.85s.02-.59.07-.86v-.98h.31s0,0,0,0c.12-.27.27-.52.45-.74.01-.02.03-.04.04-.05.18-.22.39-.42.62-.59t0,0h-1.43v-5.29h-1.39v5.29h-.57s.11.07.15.11c.4.35.59.69.78,1.36l-.36.04v1.68c.18.16.3.36.4.57.02.04.04.09.06.13.08.23.14.47.14.75,0,.63-.22,1.21-.61,1.59-.58.57-1.56.87-2.84.87-1.51,0-2.57-.41-3.15-1.2-.11-.16-.2-.31-.27-.49v.72h-2.35v1.06l-.19-.02c-1.55-.18-2.91-.25-5.87-.25h-7.94v.59s3.8,0,3.8,0v4.77h-3.8v.08h6.46c.32,0,.62,0,.9,0,.1,0,.19,0,.29,0,.17,0,.35,0,.51,0,.11,0,.21,0,.32,0,.14,0,.27,0,.4,0,.11,0,.21,0,.31,0,.12,0,.23,0,.35-.01.1,0,.2,0,.29-.01.1,0,.21-.01.31-.02.09,0,.19-.01.28-.02.1,0,.19-.01.28-.02.24-.02.47-.04.7-.06.02,0,.04,0,.06,0v-4.67h4.89v.68h1.39v-.68h4.89v.68h1.34l-.02.19c-.21,1.69-.28,3.16-.28,5.27v7.23c0,.27,0,.51.02.72,0,.03,0,.07,0,.1.01.21.03.4.06.56,0,.01,0,.03,0,.04.06.34.14.61.26.84v-3.33h4.89v3.71c.24-.15.47-.32.7-.51,0,0,0,0,.01,0,.23-.19.46-.4.67-.63v-2.56h1.17v-1.39h-1.17v-4.77h1.17c0-.49,0-.95-.01-1.39h-1.16v-4.77h4.89v.68h1.39v-.68h4.89v4.77h-2.9c0,.43-.01.89-.01,1.38h0s2.91,0,2.91,0v4.77h-2.91v1.39h2.91v4.77h-2.91c0,.51,0,.96.01,1.39h2.9v4.93h1.39v-.85h-.68l.02-.2c.21-1.65.28-3.12.28-5.3v-10.86c0-2.43-.07-3.9-.28-5.3l-.03-.2h.69v-.68h4.89v.68h1.39v-.68h4.89v.45s0,0,0,0c.45-.11.91-.19,1.39-.23v-.22h4.89v.83s0,0,0,0c.51.21.97.47,1.38.77v-1.61h4.89v4.77h-2.57c.14.43.25.89.32,1.39h2.24v4.77h-2.1v1.39h2.1v4.77h-2.1c0,.48,0,.94.02,1.39h2.08v4.93h1.39v-4.93h.89s0,0,0,0c-.21-.45-.39-.91-.53-1.39h-.36v-1.55l-.05-.4-.03-.38c-.02-.26-.03-.51-.03-.78v-.12s.02-.4.02-.4l.03-.36c.02-.18.05-.35.08-.53v-.24h.03c.08-.47.17-.93.31-1.39h-.35v-4.77h3.31c.86-.82,1.86-1.49,2.97-1.99,0,0,0,0,0,0v-4.17h4.89v3.29c.47.03.93.08,1.39.17,0,0,0,0,0,0v-3.46h4.89v4.77h-1.5c.56.33,1.08.72,1.56,1.14,0,0,0,0,0,0,.48.43.93.9,1.32,1.41v-1.17h4.97v-1.39h-4.97v-4.77h4.97v-1.39h-4.97v-4.77h4.97ZM88.27,24.99h-4.89v-4.77h4.89v4.77ZM107.1,31.14h-4.89v-4.77h4.89v4.77ZM107.1,24.99h-4.89v-4.77h4.89v4.77ZM138.49,18.83h-4.89v-4.77h4.89v4.77ZM144.77,18.83h-4.89v-4.77h4.89v4.77ZM151.05,24.99h-4.89v-4.77h4.89v4.77ZM151.05,18.83h-4.89v-4.77h4.89v4.77ZM157.32,18.83h-4.89v-4.77h4.89v4.77ZM163.6,18.83h-4.89v-4.77h4.89v4.77Z"/><path class="cls-1" d="M33.16,31.14v-.61c-.17-.04-.34-.07-.53-.1-.2-.02-.41-.04-.63-.05h-.23v.75h-4.89v-.75h-1.17v6.21s1.17,0,1.17,0v-4.07h4.89v4.07h.26c.22,0,.42-.02.62-.05.18-.02.34-.06.51-.1,0,0,0,0,0,0v-3.93h2.14c-.15-.57-.43-1.04-.84-1.39h-1.29Z"/><path class="cls-1" d="M19.22,43.62h1.39v-.82c-.5.01-.94.03-1.39.04v.78Z"/><path class="cls-1" d="M38.05,41.95v1.67h1.39v-2.34s0,0,0,0c-.43.26-.89.48-1.39.68Z"/><rect class="cls-1" x="31.77" y="42.77" width="1.39" height=".85"/><path class="cls-1" d="M98.47,13.82s-.05-.03-.08-.04c-.14-.05-.3-.08-.52-.08-.14,0-.26.01-.38.03-.06.01-.1.03-.15.04-.04.01-.09.03-.13.04-.06.03-.11.05-.15.09-.01,0-.02.02-.03.03-.05.04-.09.09-.11.14,0,0,0,0,0,0h1.85c-.07-.11-.17-.19-.29-.25Z"/><rect class="cls-1" x="119.66" y="7.39" width="1.39" height="4.88"/><rect class="cls-1" x="113.38" y="42.73" width="1.39" height=".88"/><path class="cls-1" d="M114.77,12.05v-4.66h-1.39v4.67c.25-.04.51-.06.78-.06.21,0,.41.03.6.05Z"/><path class="cls-1" d="M50.61,42.26h0v1.36h1.39v-.73s0,0,0,0c-.49-.17-.94-.39-1.39-.62Z"/><path class="cls-1" d="M58.27,33.99h-1.39v3.31h-3.08c.16.1.33.19.51.28.04.02.08.04.13.05.16.07.32.12.49.17.1.03.21.05.31.07.14.03.27.06.41.08.27.04.55.06.84.06.31,0,.61-.03.89-.07.09-.01.17-.03.25-.05.21-.04.41-.1.61-.16.08-.03.16-.05.23-.08.26-.1.51-.21.74-.35,0,0,0,0,0,0h-.97v-3.31Z"/><path class="cls-1" d="M51.99,34.29v-.31h-.07c.02.11.05.2.07.31Z"/><path class="cls-1" d="M117.26,13.32c.18.22.34.47.46.74h1.45s0-.01,0-.02c0-.17,0-.32,0-.47,0-.06,0-.12,0-.18,0-.09,0-.17,0-.25,0-.05,0-.11,0-.16,0-.1-.01-.2-.02-.3,0,0,0,0,0-.01h-2.56c.24.17.46.36.65.59.02.02.03.04.05.06Z"/><path class="cls-1" d="M95.37,39.12c-.14-.33-.25-.68-.34-1.06,0,0,0,0,0,0-.09-.37-.15-.77-.2-1.19,0-.09-.02-.18-.03-.27-.04-.43-.06-.87-.06-1.35v-8.85c0-.78-.02-1.5-.05-2.19,0-.09,0-.18-.01-.26-.03-.69-.08-1.35-.14-1.96v3.04h-4.08v1.39h4.08v4.77h-4.08v.57l-.19-.02c-1.55-.18-2.95-.25-5.62-.25h-6.46v1.08h3.8v4.77h-3.8s0,0,0,.01c0,.2,0,.39,0,.58,0,.11,0,.22,0,.33,0,.16,0,.31,0,.46h3.79v4.93h1.39v-4.93h4.89v4.93h1.39v-4.93h4.89v4.93h1.39v-3.41c-.2-.3-.36-.62-.51-.96-.02-.04-.03-.08-.05-.13ZM88.27,37.3h-4.89v-4.77h4.89v4.77ZM94.55,37.3h-4.89v-4.77h4.89v4.77Z"/><path class="cls-1" d="M107.82,41.9s-.06.04-.09.05c-.21.12-.41.25-.62.35h0v1.31h1.39v-2.17s0,0,0,0c-.22.16-.45.31-.67.45Z"/><rect class="cls-1" x="125.94" y="42.77" width="1.39" height=".85"/><path class="cls-1" d="M58.27,28.77v-2.4h.8c-.34-.23-.73-.41-1.16-.53-.03,0-.07-.01-.1-.02-.19-.05-.38-.09-.59-.12-.25-.03-.51-.05-.78-.05-.29,0-.56.02-.81.05-.23.03-.45.07-.66.12-.02,0-.04,0-.06.01-.46.12-.86.29-1.21.53h3.19v2.4h1.39Z"/><path class="cls-1" d="M130.26,14.06c-.13-.1-.27-.17-.43-.22-.17-.05-.35-.07-.56-.07-.43,0-.77.1-1.03.3h2.02s0,0,0,0Z"/><path class="cls-1" d="M113.38,17.82s0,0,0,0c.07.04.15.07.23.1.17.06.35.12.55.12.23,0,.42-.05.6-.12,0,0,0,0,0,0v-3.84h.25c-.1-.07-.21-.12-.32-.16-.16-.06-.33-.11-.52-.11s-.37.05-.54.11c-.11.04-.23.1-.33.16h.07v3.75Z"/><path class="cls-1" d="M70.82,15.92c-.02-.48-.05-.91-.09-1.35,0-.02,0-.04,0-.05-.04-.44-.09-.87-.15-1.35l-.02-.2h.2c1.45.08,2.43.12,5.14.12h10.19c3.1,0,4.25-.04,5.9-.25l.19-.02v1.26h2.35v3.31l1.13-.13.25-.03v-1.01c-.22-.1-.42-.2-.58-.32-.17-.12-.31-.26-.41-.42-.19-.32-.3-.73-.3-1.14,0-.2.03-.39.08-.57.01-.05.04-.1.05-.15.04-.13.1-.25.17-.36.03-.05.06-.09.09-.14.08-.11.17-.21.28-.31.03-.03.07-.06.1-.09.15-.12.31-.23.5-.31v-5h-1.39v5.29h-4.89v-5.29h-1.39v5.29h-4.89v-5.29h-1.39v5.29h-4.89v-5.29h-1.39v5.29h-4.89v-5.29h-1.39v5.29h-4.89v-5.29h-1.39v5.29h-4.89v-5.29h-1.39v5.29h-4.89v-5.29h-1.39v5.29h-4.89v-5.29h-1.39v5.29h-4.89v-5.29h-1.39v5.29h-4.89v-5.29h-1.39v5.29h-4.89v-5.29h-1.39v5.29h-4.89v-5.29h-1.39v5.29h-4.89v-5.29h-1.39v5.29h-5.18v1.39h5.18v4.77h-5.18v1.39h5.18v4.77h-5.18v1.39h5.18v4.77h-5.18v1.39h5.18v4.77h-5.18v1.39h5.18v4.93h1.39v-4.93h4.12c0-.36,0-.74,0-1.16v-.22h-4.13v-4.77h4.13v-1.39h-4.13v-4.77h4.13v-1.39h-4.13v-4.77h4.13v-1.39h-4.13v-4.77h3.95c-.03-.3-.06-.6-.1-.9l-.02-.21h.21c1.8.12,2.28.12,5.18.12h9.24c.45,0,.89.02,1.31.06.1,0,.19.02.29.03.38.04.75.09,1.11.16.03,0,.06.01.09.02.84.17,1.61.41,2.31.73h.16v.07s0,0,0,0c.51.25.97.53,1.39.86v-.93h4.89v4.77h-2.51c.1.44.15.9.18,1.39h0s2.33,0,2.33,0v4.77h-3.67c-.23.3-.47.59-.75.84h0c-.15.13-.3.25-.45.36-.08.06-.17.11-.25.17-.07.05-.14.09-.21.14-.11.07-.23.13-.34.2-.05.03-.1.05-.15.08-.14.07-.29.14-.45.21v.4c.25.08.48.16.7.24.03.01.05.02.08.03.21.08.41.18.6.27v-1.56h4.89v4.77h-1.93c.19.43.33.9.44,1.38,0,0,0,0,0,0h1.49v4.77h-1.68s0,0,0,0c-.16.49-.36.95-.61,1.39h2.29v4.93h1.39v-4.93h1.13s0,0,0,0c-.27-.44-.5-.9-.71-1.39h-.42v-1.11c-.11-.33-.2-.66-.28-1,0-.02,0-.04-.01-.07-.07-.32-.14-.64-.19-.97-.02-.11-.03-.22-.04-.33-.03-.26-.07-.51-.09-.78-.03-.39-.05-.79-.05-1.2,0-.41.02-.81.05-1.2.02-.26.06-.52.09-.77.02-.11.03-.22.04-.33.05-.33.12-.65.19-.96,0-.02,0-.05.01-.07.08-.34.17-.67.28-.99v-1.15h.44c.21-.48.45-.95.72-1.39h0s-1.16,0-1.16,0v-4.77h4.89v1.25s0,0,0,0c.44-.24.9-.45,1.39-.63v-.62h2.43c.32-.05.64-.09.97-.11.35-.03.7-.05,1.06-.05.62,0,1.21.05,1.78.12.11.01.22.02.33.04h4.61v1.85s0,0,0,0c.5.36.96.77,1.39,1.22v-3.08h4.89v4.77h-3.62c.09.15.16.33.25.49.15.29.31.58.44.89h2.93v4.77h-1.85c.04.43.07.89.1,1.39h1.75v4.77h-2.2s0,0,0,0c-.25.54-.48.99-.71,1.39h2.91v4.93h1.39v-.85h-.31l.03-.2c.03-.22.06-.43.09-.65,0-.05.01-.11.02-.16.02-.17.04-.34.06-.52,0-.05.01-.11.01-.17.02-.19.03-.39.04-.6,0-.04,0-.09,0-.13.01-.25.03-.52.04-.8v-.86h.02s0,0,0,0c0-.42.01-.88.01-1.38h-.04v-4.77h.04v-1.39h-.04v-4.77h.04v-1.39h-.04v-4.77h.04v-1.39h-.04v-2.92ZM50.61,18.83h-4.89v-4.77h4.89v4.77ZM56.88,18.83h-4.89v-4.77h4.89v4.77ZM63.16,18.83h-4.89v-4.77h4.89v4.77ZM69.44,18.83h-4.89v-4.77h4.89v4.77Z"/><polygon class="cls-1" points="63.16 35.47 64.55 35.86 64.55 33.99 63.16 33.99 63.16 35.47"/><rect class="cls-1" x="138.49" y="42.77" width="1.39" height=".85"/><path class="cls-1" d="M108.47,12.8s.03.02.04.03c.37.32.66.74.85,1.23h1.24c.13-.27.28-.52.46-.74.02-.02.03-.04.05-.06.19-.22.4-.42.64-.59t0,0h-3.27v-5.29h-1.39v4.73s0,0,0,0c.53.13.99.36,1.37.68Z"/><path class="cls-1" d="M63.16,43.62h1.39v-2.6c-.43.37-.89.7-1.39.99v1.61Z"/><path class="cls-1" d="M122.01,12.68h-.54v.54c.17-.22.35-.39.54-.54Z"/><path class="cls-1" d="M133.6,26.69h0c-.24-.05-.49-.08-.77-.08-.21,0-.41.02-.62.05v4.48h-4.46v1.39h4.46v4.77h-4.46c0,.49,0,.95.01,1.39h4.45v4.93h1.39v-4.93h1.94c0-.33,0-.69,0-1.05,0-.12,0-.22,0-.34h-1.95v-4.77h1.95v-1.39h-1.95v-4.45Z"/><path class="cls-1" d="M107.38,16.94l1.11.17v-2.42l-1.14.23c-.04-.14-.08-.24-.12-.33-.04-.09-.08-.16-.13-.23v3.18s.05-.03.06-.05c.11-.16.17-.27.22-.55Z"/><path class="cls-1" d="M125.85,14.07c.16-.35.36-.66.61-.92s.53-.49.86-.67v-5.08h-1.39v5.29h-.99l-.37,1.39h1.28s0,0,0,0Z"/><path class="cls-1" d="M56.88,43.62h1.39v-.09c-.45.05-.91.07-1.39.08h0Z"/><path class="cls-1" d="M106.46,13.89c-.14-.04-.29-.08-.46-.08-.18,0-.34.05-.5.11-.1.04-.2.09-.3.15h1.58c-.1-.07-.21-.13-.33-.17Z"/><path class="cls-1" d="M100.83,43.62h1.39v-.34c-.48-.01-.95-.03-1.39-.1v.44Z"/><rect class="cls-1" x="75.72" y="42.77" width="1.39" height=".85"/><path class="cls-1" d="M31.77,24.4c.26,0,.5-.03.73-.08.02,0,.03,0,.05-.01.22-.05.42-.11.61-.19v-3.9h1.03s0,0,0,0c-.1-.15-.23-.28-.38-.4-.04-.03-.09-.06-.14-.09-.11-.08-.23-.15-.36-.21-.06-.03-.13-.05-.19-.08-.14-.05-.29-.09-.45-.13-.07-.01-.14-.03-.21-.04-.24-.04-.49-.06-.77-.07h-5.97v5.19h1.17v-4.18h4.89v4.18s0,0,0,0Z"/></g><path class="cls-2" d="M104.63,14.87c.04-.1.08-.18.12-.27.12-.22.27-.41.46-.54.09-.06.19-.11.3-.15.15-.06.31-.11.5-.11.17,0,.32.03.46.08.12.04.23.1.33.17.07.05.16.09.22.16.04.04.06.1.09.14.04.07.09.15.13.23.04.09.08.2.12.33l1.14-.23,1.01-.21c-.04-.15-.09-.29-.14-.42-.19-.49-.48-.91-.85-1.23-.01-.01-.03-.02-.04-.03-.38-.32-.84-.55-1.37-.68,0,0,0,0,0,0,0,0,0,0,0,0-.35-.08-.72-.14-1.12-.14-.26,0-.51.03-.75.06-.1.02-.2.04-.3.07-.12.03-.24.06-.36.1-.12.04-.24.09-.36.14-.07.03-.14.07-.2.1-.13.07-.26.14-.38.22h0s0,0,0,0c-.24.17-.44.37-.62.59-.01.02-.03.04-.04.05-.18.22-.33.47-.45.74,0,0,0,0,0,0,0,0,0,0,0,0-.14.3-.25.63-.31.98h0c-.05.27-.07.56-.07.86s.02.58.07.85c.06.37.18.7.32,1.02.03.08.07.15.11.23.16.3.34.58.57.81,0,0,.01,0,.01.01.33.33.74.59,1.21.76.01,0,.03,0,.04.01.22.08.46.14.7.18.26.04.54.07.82.07.31,0,.61-.03.89-.08.16-.03.31-.08.46-.12.1-.03.2-.05.29-.09.19-.08.37-.16.53-.27.03-.02.05-.03.08-.05.18-.12.35-.26.5-.41.11-.12.24-.22.33-.36.23-.35.37-.67.5-1.19l-1.1-.17-1.11-.17c-.05.27-.11.39-.22.55-.02.02-.05.03-.06.05-.12.15-.28.27-.46.35-.18.08-.39.13-.61.13-.96,0-1.57-.84-1.57-2.13,0-.28.04-.52.09-.75.02-.09.05-.19.08-.27Z"/><path class="cls-2" d="M133.05,16.6v-.24c-.05-.68-.1-1.18-.19-1.57-.05-.23-.12-.44-.2-.65,0-.02-.02-.04-.03-.06-.08-.18-.16-.35-.26-.51,0,0,0,0,0-.01-.22-.35-.49-.64-.81-.88,0,0,0,0,0,0-.3-.22-.64-.4-1.02-.51-.02,0-.04,0-.06-.01-.17-.05-.35-.09-.54-.12-.21-.03-.43-.05-.66-.05-.35,0-.68.05-1,.12-.04,0-.08.02-.11.03-.3.08-.58.19-.84.33-.65.36-1.15.9-1.47,1.6,0,0,0,0,0,0,0,0,0,0,0,0-.12.26-.21.53-.27.82,0,.02-.01.04-.02.06-.07.3-.1.63-.1.97,0,.37.04.71.12,1.04,0,.04.02.07.03.11.08.31.19.61.33.89h0c.08.15.16.29.25.43.11.16.23.32.36.46.68.68,1.6,1.02,2.78,1.02s2.14-.35,2.82-1.02c0,0,0,0,.01-.01.02-.02.03-.04.05-.06,0,0,0,0,0,0,.07-.08.14-.15.2-.23,0,0,0,0,0-.01.06-.07.11-.15.17-.24,0-.01.01-.02.02-.03.05-.08.1-.17.15-.27.06-.11.12-.24.18-.39l-.73-.21-1.35-.38c-.09.31-.18.44-.36.61-.31.29-.73.44-1.21.44-.95,0-1.51-.52-1.63-1.48h5.39ZM127.7,14.94c.1-.39.28-.68.54-.88.26-.2.6-.3,1.03-.3.2,0,.39.03.56.07.16.05.31.12.43.22,0,0,0,0,0,0,.13.1.24.22.32.37,0,0,0,0,0,0,.09.15.15.32.19.51h-3.08Z"/><path class="cls-2" d="M118,14.88c-.07-.29-.16-.56-.27-.81-.13-.27-.28-.52-.46-.74-.02-.02-.03-.04-.05-.06-.19-.22-.4-.42-.65-.59-.5-.34-1.11-.55-1.8-.63h0c-.2-.02-.39-.05-.6-.05-.27,0-.53.03-.78.06,0,0,0,0,0,0-.62.09-1.17.31-1.62.62h0s0,0,0,0c-.24.17-.46.36-.64.59-.02.02-.03.04-.05.06-.18.22-.34.47-.46.74-.12.25-.21.53-.27.82,0,.02-.01.04-.01.06-.06.3-.1.63-.1.97,0,.31.03.6.07.88,0,.04.02.07.03.1.05.24.11.47.19.69,0,0,0,.01.01.02.19.48.47.9.82,1.23h0s0,0,0,0c.34.32.75.58,1.22.75.04.01.08.02.12.03.2.07.41.13.63.17.27.04.55.07.84.07s.57-.03.83-.07c.22-.04.43-.1.63-.17.04-.01.08-.02.11-.03.47-.17.88-.43,1.22-.75.36-.34.65-.76.85-1.24,0-.01.01-.02.02-.03.09-.22.15-.45.2-.69,0-.04.02-.07.03-.11.05-.28.08-.57.08-.88,0-.34-.04-.66-.1-.96,0-.02-.01-.03-.01-.05ZM115.71,16.72c-.02.1-.06.18-.09.26-.05.12-.1.24-.16.34-.06.09-.12.18-.19.25-.06.06-.13.11-.19.15-.09.07-.19.14-.3.18,0,0,0,0,0,0-.18.07-.38.12-.6.12-.21,0-.39-.05-.55-.12-.08-.03-.16-.06-.23-.1h0s-.04-.03-.06-.04c-.19-.12-.35-.29-.48-.5-.06-.1-.12-.22-.17-.34-.03-.08-.06-.16-.08-.25-.06-.23-.1-.49-.1-.78s.04-.52.1-.75c.02-.1.05-.19.09-.27.04-.1.08-.18.13-.26.13-.23.29-.42.5-.55.1-.07.21-.12.33-.16.16-.06.34-.11.54-.11s.36.05.52.11c.12.04.22.09.32.16.2.13.35.33.48.55.05.08.09.17.13.27.03.09.06.18.08.28.06.23.09.47.09.76s-.04.56-.1.79Z"/><path class="cls-2" d="M119.18,18.35s0,0,0,0c0,.17-.01.33-.02.48-.01.24-.04.48-.07.74h2.48c-.03-.26-.05-.49-.07-.74,0-.15-.02-.3-.02-.47,0,0,0,0,0-.01,0-.17,0-.36,0-.57v-1.87c.05-.53.13-.78.36-1.07.35-.43.81-.65,1.42-.65.37,0,.67.06,1.22.23l.1-.36.37-1.39.11-.41c-.56-.12-.8-.14-1.19-.14-.36,0-.66.05-.95.12-.06.01-.11.03-.17.05-.27.09-.52.21-.74.38-.19.15-.38.32-.54.54v-.95h-2.38c.02.14.03.27.05.41,0,0,0,0,0,.01,0,.1.02.2.02.3,0,.05,0,.11,0,.16,0,.08,0,.16,0,.25,0,.06,0,.11,0,.18,0,.14,0,.29,0,.47,0,0,0,.01,0,.02,0,0,0,.01,0,.02v3.69c0,.22,0,.4,0,.58Z"/><path class="cls-2" d="M98.04,18.03c-.8,0-1.21-.27-1.33-.9l-.78.09-.25.03-1.13.13-.21.02c.03.15.06.28.1.4,0,0,0,0,0,0,.03.11.07.21.11.31.07.17.16.33.27.49.58.79,1.64,1.2,3.15,1.2,1.28,0,2.26-.3,2.84-.87.4-.38.61-.96.61-1.59,0-.28-.05-.53-.14-.75-.02-.05-.04-.09-.06-.13-.1-.21-.22-.4-.4-.57-.16-.14-.34-.28-.56-.38-.42-.22-.79-.32-1.96-.57-1.19-.26-1.44-.38-1.44-.71,0-.05.03-.1.05-.15h0c.02-.05.06-.09.11-.14.01,0,.02-.02.03-.03.04-.03.1-.06.15-.09.04-.02.08-.03.13-.04.05-.01.1-.03.15-.04.11-.02.24-.03.38-.03.21,0,.38.03.52.08.03.01.06.02.08.04.13.06.23.14.29.25.05.09.09.2.11.34l1.95-.21.36-.04c-.19-.67-.38-1.02-.78-1.36-.05-.04-.11-.07-.15-.11-.28-.22-.61-.38-1.01-.49-.04,0-.08-.01-.12-.02-.17-.04-.34-.08-.52-.1-.24-.03-.48-.04-.75-.04-.35,0-.66.03-.96.09-.06.01-.12.02-.18.03-.29.06-.56.14-.79.25-.19.09-.35.2-.5.31-.04.03-.07.06-.1.09-.11.09-.2.2-.28.31-.03.05-.06.09-.09.14-.07.11-.12.23-.17.36-.02.05-.04.1-.05.15-.05.18-.08.37-.08.57,0,.41.11.81.3,1.14.1.16.24.29.41.42.16.12.36.23.58.32.08.03.13.08.22.11.4.13.86.25,1.77.43.66.13.81.18.98.27.17.1.26.25.26.43,0,.37-.41.57-1.12.57Z"/><path class="cls-2" d="M214.71,29.15c-4.45,0-7.26,2.8-7.26,7.2s2.82,7.24,7.24,7.24,7.28-2.9,7.28-7.28-2.82-7.15-7.26-7.15ZM214.71,40.24c-1.92,0-3.06-1.47-3.06-3.92s1.14-3.87,3.08-3.87,2.99,1.45,2.99,3.92-1.1,3.87-3.02,3.87Z"/><path class="cls-2" d="M241,43.08h4.58c-.13-1.03-.18-1.93-.18-3.3v-5.46c0-3.32-1.61-5.04-4.75-5.04-1.92,0-3.26.57-4.62,1.92-.29-.55-.51-.81-.9-1.1-.73-.53-1.67-.79-2.82-.79-1.74,0-3.08.57-4.2,1.8v-.22q.02-.22.02-.31v-.92h-4.36c.13.86.18,1.65.18,3.32v6.78c0,1.39-.04,2.31-.18,3.32h4.53c-.13-1.08-.17-1.93-.17-3.32v-4.45c.62-1.5,1.63-2.36,2.82-2.36.53,0,.97.2,1.21.55.29.38.37.79.37,1.72v4.53c0,1.41-.04,2.33-.17,3.32h4.58c-.13-1.05-.18-1.98-.18-3.3v-4.49c.55-1.47,1.56-2.36,2.69-2.36,1.25,0,1.74.64,1.74,2.29v4.53c0,1.5-.04,2.29-.18,3.32Z"/><path class="cls-2" d="M201.85,39.26c-.44.62-1.23.97-2.09.97-1.76,0-2.88-1.54-2.88-3.92s1.06-3.83,2.84-3.83c.79,0,1.41.26,1.85.77.29.33.42.64.62,1.3l3.96-.81c-.72-2.93-3.08-4.6-6.47-4.6-4.29,0-7.06,2.82-7.06,7.22,0,2.16.71,4.09,1.98,5.35,1.21,1.23,3.02,1.89,5.13,1.89,2.55,0,4.56-.9,5.66-2.53.42-.64.68-1.23.93-2.18l-4.05-.64c-.09.51-.2.73-.4,1.01Z"/><path class="cls-2" d="M56.88,33.99h10.9l-.02-.19c-.04-.35-.04-.55-.04-.69h0c-.01-.21-.02-.39-.04-.58-.03-.49-.06-.96-.1-1.39h0c-.04-.49-.09-.93-.15-1.35,0-.06-.02-.12-.02-.18-.06-.43-.14-.82-.22-1.17h0c-.13-.55-.3-1.05-.48-1.55-.07-.17-.13-.35-.2-.52-.13-.31-.29-.6-.44-.89-.08-.16-.15-.34-.25-.49h0c-.08-.13-.17-.25-.25-.38-.19-.29-.39-.56-.61-.83-.14-.16-.27-.33-.41-.49-.42-.45-.89-.86-1.39-1.22,0,0,0,0,0,0,0,0,0,0,0,0-.54-.39-1.12-.71-1.74-.99-.23-.1-.47-.21-.71-.29-.23-.08-.46-.16-.69-.23-.47-.14-.95-.25-1.46-.33h0c-.11-.02-.22-.02-.33-.04-.58-.07-1.16-.12-1.78-.12-.36,0-.71.02-1.06.05-.33.03-.65.07-.97.11h0c-.42.06-.84.15-1.24.25,0,0,0,0-.01,0-.4.1-.79.23-1.17.37-.48.18-.95.39-1.39.63,0,0,0,0,0,0,0,0,0,0,0,0-.36.2-.7.42-1.03.65-.05.04-.11.08-.16.12-.27.2-.53.42-.78.64-.07.06-.14.13-.21.19-.23.22-.44.46-.65.7-.06.07-.13.14-.19.22-.25.31-.49.64-.71.99,0,0,0,0,0,0h0c-.27.44-.51.9-.72,1.39-.16.37-.31.75-.44,1.15-.1.32-.2.65-.28.99,0,.02,0,.05-.01.07-.07.31-.14.63-.19.96-.02.11-.03.22-.04.33-.03.25-.07.51-.09.77-.03.39-.05.79-.05,1.2,0,.41.02.8.05,1.2.02.26.06.52.09.78.01.11.02.22.04.33.05.33.12.65.19.97,0,.02,0,.04.01.07.08.34.17.68.28,1,.12.38.26.75.42,1.11.21.48.44.95.71,1.39,0,0,0,0,0,0,0,0,0,0,0,0,.21.34.43.66.67.97,0,0,0,.01.01.02.24.31.5.61.78.9.32.32.67.61,1.03.88.05.04.1.07.15.11.36.25.73.49,1.11.7h0s0,0,0,0c.44.24.9.45,1.39.62,0,0,0,0,0,0,0,0,0,0,0,0,.68.24,1.41.43,2.18.55,0,0,0,0,0,0,.38.06.78.11,1.18.14.41.03.83.05,1.26.05.09,0,.18,0,.27,0,.47,0,.94-.04,1.39-.08.45-.05.89-.11,1.31-.19.03,0,.06-.01.09-.02.4-.08.78-.18,1.16-.29.04-.01.08-.02.11-.03.37-.12.72-.25,1.07-.4.03-.01.06-.03.09-.04.37-.16.72-.34,1.06-.54.49-.29.95-.62,1.39-.99.17-.15.35-.29.51-.45.29-.29.55-.57.78-.87.01-.02.03-.03.04-.05.23-.3.44-.61.65-.97.23-.39.46-.85.71-1.39,0,0,0,0,0,0,.06-.14.12-.27.19-.41l.08-.18-2.96-.83-1.39-.39-2.14-.6-.05.16c-.28.91-.5,1.24-1.01,1.72-.22.2-.46.38-.72.54,0,0,0,0,0,0-.23.14-.48.25-.74.35-.08.03-.16.05-.23.08-.2.07-.4.12-.61.16-.08.02-.17.04-.25.05-.29.04-.59.07-.89.07-.3,0-.58-.02-.84-.06-.14-.02-.28-.05-.41-.08-.11-.02-.21-.04-.31-.07-.17-.05-.34-.11-.49-.17-.04-.02-.08-.04-.13-.05-.18-.08-.35-.17-.51-.28-.23-.15-.44-.32-.63-.52,0,0-.02-.02-.02-.03-.18-.19-.34-.41-.49-.64,0-.01-.02-.03-.02-.04-.14-.24-.27-.5-.37-.78,0-.01,0-.02-.01-.04-.11-.29-.2-.61-.26-.95-.02-.1-.05-.2-.07-.31h4.96ZM52.34,28.01s.03-.04.04-.07c.1-.21.21-.41.33-.59,0,0,0,0,.01-.01.27-.39.59-.71.97-.97.35-.23.76-.41,1.21-.53.02,0,.04,0,.06-.01.21-.05.43-.1.66-.12.26-.03.53-.05.81-.05.27,0,.53.02.78.05.21.03.4.07.59.12.03,0,.07.01.1.02.44.12.82.3,1.16.53.38.26.69.58.95.97,0,0,.01.02.02.02.12.18.22.37.31.58.01.03.03.05.04.08.1.23.18.48.26.75h-8.59c.08-.27.18-.53.28-.76Z"/><path class="cls-2" d="M42.84,32.53s0,0,0,0c0,0,0,0,0,0-.11-.49-.25-.95-.44-1.38-.2-.44-.43-.86-.71-1.25-.28-.39-.6-.75-.97-1.08h0c-.21-.18-.42-.34-.63-.49-.21-.14-.43-.27-.65-.39-.19-.1-.39-.19-.6-.27-.03-.01-.05-.02-.08-.03-.22-.09-.45-.17-.7-.24-.18-.06-.35-.11-.56-.17.21-.08.38-.16.56-.24.16-.07.31-.14.45-.21.05-.02.1-.05.15-.08.12-.06.23-.13.34-.2.07-.04.14-.09.21-.14.08-.06.17-.11.25-.17.15-.11.3-.23.45-.36h0c.28-.26.52-.55.75-.84.17-.22.3-.45.44-.69.07-.12.14-.25.21-.38.1-.21.19-.43.27-.66.07-.21.14-.43.19-.66.05-.18.09-.36.13-.56.07-.44.12-.9.12-1.39,0-.15-.01-.29-.02-.43h0c-.02-.48-.08-.95-.18-1.39h0c-.08-.38-.2-.74-.33-1.08-.01-.03-.02-.05-.03-.08-.14-.35-.31-.68-.5-.99,0,0,0,0,0,0-.19-.31-.41-.59-.65-.86-.02-.02-.03-.04-.05-.06-.25-.27-.52-.53-.82-.76-.42-.33-.88-.61-1.39-.86,0,0,0,0,0,0-.05-.03-.11-.05-.16-.07-.69-.32-1.46-.56-2.31-.73-.03,0-.06-.01-.09-.02-.36-.07-.73-.12-1.11-.16-.1,0-.19-.02-.29-.03-.42-.04-.86-.06-1.31-.06h-9.24c-2.9,0-3.38,0-5.18-.11h-.21s.02.19.02.19c.04.31.07.6.1.9.03.3.05.59.08.89,0,.07.01.15.02.22.02.26.03.52.04.79,0,.15.01.3.02.44,0,.21.02.42.02.63,0,.38.01.77.01,1.18v19.3c0,.43,0,.8,0,1.16h0c-.01.84-.04,1.52-.08,2.14,0,.02,0,.04,0,.06-.02.29-.05.57-.07.85,0,.04,0,.08-.01.12-.03.27-.06.55-.1.84l-.03.21h.21c.3-.02.58-.04.86-.05.44-.02.89-.03,1.39-.04.38,0,.79-.01,1.28-.02.07,0,.15,0,.22,0,.18,0,.36,0,.55,0,.28,0,.58,0,.91,0h9.59c.44,0,.86-.02,1.27-.05.11,0,.21-.02.32-.03.31-.03.61-.07.9-.11.1-.02.2-.03.29-.05.31-.06.61-.12.9-.2.07-.02.13-.03.2-.05.35-.1.69-.2,1.01-.33.5-.19.96-.42,1.39-.68,0,0,0,0,0,0,0,0,0,0,0,0,.55-.33,1.05-.71,1.48-1.14,0,0,0,0,0,0,.43-.43.81-.91,1.11-1.44.25-.43.45-.89.61-1.39,0,0,0,0,0,0,0,0,0,0,0,0,.13-.39.22-.8.29-1.23.01-.07.02-.15.03-.23.06-.43.1-.86.1-1.32,0-.46-.05-.89-.11-1.31-.04-.23-.07-.46-.12-.68ZM25.72,19.21h5.97c.28,0,.53.03.77.07.07.01.14.03.21.04.16.03.31.08.45.13.07.02.13.05.19.08.13.06.25.13.36.21.05.03.09.06.14.09.14.12.27.25.38.4,0,0,0,0,0,0,.12.18.21.39.28.61.02.05.03.11.04.16.06.23.1.48.1.76,0,.26-.04.5-.09.72-.01.05-.03.1-.04.15-.06.2-.14.39-.24.56,0,.01-.01.03-.02.04-.25.39-.6.7-1.06.9-.19.08-.39.15-.61.19-.02,0-.03,0-.05.01-.23.05-.47.07-.73.08,0,0,0,0,0,0,0,0-.01,0-.02,0h-6.04v-5.19ZM35.28,34.46c-.01.05-.03.11-.04.16-.1.3-.23.57-.4.8,0,.01-.02.02-.03.03-.38.49-.94.83-1.65,1.01,0,0,0,0,0,0,0,0,0,0,0,0-.16.04-.33.07-.51.1-.2.03-.4.05-.62.05h-6.32v-6.21h6.29c.22,0,.43.02.63.05.19.02.36.06.53.1.25.06.48.14.7.24,0,0,.01,0,.02,0,.21.1.41.22.58.36h0c.42.35.69.81.84,1.39.07.29.13.59.13.93,0,.37-.06.69-.14,1Z"/><path class="cls-2" d="M142.8,40.93c0-.12-.02-.23-.02-.35-.04-.6-.07-1.23-.09-1.9-.01-.44-.02-.9-.02-1.38h0v-8.85c0-.38-.01-.74-.04-1.09,0,0,0-.01,0-.02-.02-.34-.06-.66-.11-.97-.08-.5-.18-.96-.32-1.39-.24-.74-.59-1.39-1.05-1.97-.01-.01-.02-.03-.03-.04-.16-.2-.33-.39-.51-.57-.22-.22-.48-.39-.73-.57-.42-.31-.88-.57-1.38-.77,0,0,0,0,0,0,0,0,0,0,0,0-.25-.1-.5-.19-.77-.27-.31-.09-.63-.18-.97-.24-.16-.03-.33-.05-.49-.07-.47-.06-.94-.11-1.45-.11-.42,0-.82.02-1.21.06-.48.05-.94.13-1.39.23,0,0,0,0,0,0,0,0,0,0,0,0-.79.19-1.54.48-2.27.88-.05.03-.1.06-.14.08-.29.16-.58.35-.86.55-.08.05-.16.11-.23.17-.33.24-.66.51-.98.8.01-.22.02-.46.02-.59v-1.65h-7.39l.03.2c.21,1.4.28,2.87.28,5.3v10.86c0,2.18-.07,3.65-.28,5.3l-.02.2h7.69l-.02-.19c-.07-.61-.12-1.18-.16-1.74-.01-.14-.02-.29-.03-.43-.04-.56-.06-1.13-.08-1.72h0c0-.44-.01-.9-.01-1.39,0,0,0-.02,0-.03v-7.07c.18-.29.36-.55.54-.8.07-.09.13-.17.2-.26.12-.15.23-.3.35-.44.09-.1.17-.19.26-.28.1-.11.21-.22.31-.31.1-.09.2-.18.29-.26.09-.08.19-.16.29-.23.11-.08.22-.16.32-.23.09-.06.18-.11.26-.16.12-.07.24-.13.36-.19.08-.04.16-.07.24-.1.13-.05.26-.1.4-.14.06-.02.13-.03.19-.05.15-.04.3-.08.45-.1h0c.2-.03.41-.05.62-.05.28,0,.53.03.77.08h0s0,0,0,0c.28.06.53.16.75.28.05.03.09.05.14.08.21.13.39.29.53.48h.01c.39.57.52,1.11.52,2.51v7.23s0,.02,0,.03c0,.12,0,.22,0,.34,0,.36,0,.72,0,1.05h0c0,.14,0,.27-.01.41,0,.27-.02.55-.03.8,0,.15-.02.31-.02.46-.01.25-.03.49-.05.73-.01.13-.02.26-.03.38-.03.36-.07.73-.12,1.11l-.02.19h7.73l-.02-.19c-.06-.51-.11-1.06-.15-1.64Z"/><path class="cls-2" d="M86.1,13.07h-10.19c-2.72,0-3.7-.04-5.14-.11h-.2s.02.19.02.19c.06.48.11.92.15,1.35,0,.02,0,.04,0,.05.04.43.07.87.09,1.35.01.32.02.67.03,1.05,0,.03,0,.07,0,.11,0,.37,0,.77,0,1.22v18.27c0,.26,0,.49,0,.73,0,.5,0,.97-.01,1.38h0s0,.01,0,.02c0,.3-.01.58-.02.85-.01.28-.02.55-.04.8,0,.04,0,.09,0,.13-.01.21-.03.4-.04.6,0,.06,0,.11-.01.17-.02.18-.04.35-.06.52,0,.05-.01.11-.02.16-.03.22-.06.43-.09.65l-.03.2h7.99l-.03-.2c-.04-.25-.07-.5-.1-.75,0-.06-.01-.12-.02-.18-.06-.51-.09-1.05-.12-1.7,0-.06,0-.12,0-.18-.01-.33-.02-.68-.02-1.09,0-.14,0-.3,0-.46,0-.11,0-.22,0-.33,0-.19,0-.38,0-.58,0,0,0,0,0-.01,0-.27,0-.54,0-.84v-5.01h6.46c2.68,0,4.08.07,5.62.25l.19.02v-6.91l-.19.02c-.21.02-.42.05-.62.07,0,0,0,0,0,0-.02,0-.04,0-.06,0-.23.02-.46.04-.7.06-.09,0-.19.01-.28.02-.09,0-.19.01-.28.02-.1,0-.2.01-.31.02-.1,0-.2,0-.29.01-.11,0-.23,0-.35.01-.1,0-.2,0-.31,0-.13,0-.26,0-.4,0-.1,0-.21,0-.32,0-.16,0-.34,0-.51,0-.1,0-.19,0-.29,0-.28,0-.58,0-.9,0h-6.46v-2.44s0-2.41,0-2.41v-.59h7.94c2.96,0,4.32.07,5.87.25l.19.02v-7.09l-.19.02c-1.65.21-2.8.25-5.9.25Z"/><path class="cls-2" d="M116.93,41.78s-.01-.1-.02-.15c-.03-.27-.05-.54-.07-.83,0,0,0,0,0-.01-.02-.31-.04-.63-.05-.98,0,0,0,0,0-.01-.01-.35-.02-.72-.03-1.13,0-.43-.01-.88-.01-1.38h0s0-.02,0-.03v-10.9h0c0-.5,0-.95.01-1.39,0-.18.01-.34.02-.51,0-.24.01-.47.02-.7,0-.17.02-.33.03-.49.01-.24.03-.47.05-.7.01-.13.02-.26.03-.4.03-.36.07-.72.12-1.09l.02-.2h-7.69l.02.19c.07.61.12,1.18.16,1.75.01.14.02.28.03.42.04.56.06,1.13.08,1.72,0,.44.01.89.01,1.38h0v7.18c-.18.29-.37.56-.56.82,0,0,0,0-.01.01-.19.25-.39.49-.6.71-.22.23-.44.44-.67.63,0,0,0,0-.01,0-.23.19-.46.36-.7.51-.41.26-.83.46-1.26.6-.04.01-.09.02-.13.03-.17.05-.34.1-.51.13-.22.04-.44.06-.66.06-.98,0-1.69-.33-2.15-.92-.07-.09-.12-.19-.18-.28-.12-.23-.21-.49-.26-.84,0-.01,0-.03,0-.04-.02-.17-.04-.35-.06-.56,0-.03,0-.07,0-.1-.01-.22-.02-.45-.02-.72v-7.23c0-2.11.07-3.58.28-5.27l.02-.19h-7.73l.02.19c.03.27.06.56.09.85.06.61.1,1.27.14,1.96,0,.09,0,.17.01.26.03.69.05,1.42.05,2.19v8.85c0,.48.02.93.06,1.35,0,.09.02.18.03.27.05.42.11.82.2,1.19,0,0,0,0,0,0,.09.38.21.73.34,1.06.02.04.03.08.05.13.15.34.31.66.51.96.25.38.54.74.87,1.07h0c.31.3.66.56,1.03.8.11.07.23.13.34.19.28.16.58.3.89.42.13.05.25.1.38.14.43.14.88.26,1.37.34,0,0,0,0,.01,0,.44.07.91.09,1.39.1.11,0,.21.02.32.02.41,0,.8-.02,1.17-.05.1,0,.2-.02.3-.04.28-.03.55-.07.81-.13.1-.02.2-.04.3-.07.27-.06.54-.14.8-.23.07-.02.14-.05.22-.07.33-.12.65-.25.97-.41,0,0,0,0,0,0h0c.21-.11.42-.23.62-.35.03-.02.06-.03.09-.05.22-.14.45-.29.67-.45,0,0,0,0,0,0h0c.39-.28.78-.59,1.18-.95,0,.22,0,.44,0,.54v1.69h7.39l-.03-.2c-.04-.25-.07-.5-.1-.76Z"/><polygon class="cls-2" points="152.43 7.39 157.32 7.39 158.71 7.39 163.6 7.39 164.99 7.39 169.96 7.39 169.96 12.68 169.96 14.07 169.96 18.83 169.96 20.22 169.96 24.99 169.96 26.37 169.96 27.79 177.72 27.79 177.72 7.39 177.72 1.57 177.72 0 0 0 0 1.57 0 7.39 0 43.62 7.76 43.62 7.76 43.44 7.76 38.68 7.76 37.3 7.76 32.53 7.76 31.14 7.76 26.37 7.76 24.99 7.76 20.22 7.76 18.83 7.76 14.07 7.76 12.68 7.76 7.39 12.94 7.39 14.33 7.39 19.22 7.39 20.6 7.39 25.5 7.39 26.88 7.39 31.77 7.39 33.16 7.39 38.05 7.39 39.44 7.39 44.33 7.39 45.71 7.39 50.61 7.39 51.99 7.39 56.88 7.39 58.27 7.39 63.16 7.39 64.55 7.39 69.44 7.39 70.82 7.39 75.72 7.39 77.1 7.39 81.99 7.39 83.38 7.39 88.27 7.39 89.66 7.39 94.55 7.39 95.93 7.39 100.83 7.39 102.21 7.39 107.1 7.39 108.49 7.39 113.38 7.39 114.77 7.39 119.66 7.39 121.04 7.39 125.94 7.39 127.32 7.39 132.21 7.39 133.6 7.39 138.49 7.39 139.88 7.39 144.77 7.39 146.15 7.39 151.05 7.39 152.43 7.39"/><path class="cls-2" d="M163.6,42.09c-.11.09-.21.19-.32.27v.05h20.23v-1.47h-18.81c-.34.41-.7.79-1.1,1.14Z"/><path class="cls-2" d="M166.97,36.15c-.07.37-.15.74-.26,1.11,0,0,0,.02,0,.03,0,.02,0,.04-.01.06h18.65v-1.44h-18.33c-.01.08-.01.16-.03.23Z"/><path class="cls-2" d="M167.04,32.53h0s0,.04,0,.07c0,.05,0,.1.01.15h20.63v-1.45h-20.94c.12.4.23.81.3,1.23Z"/><path class="cls-2" d="M157.65,26.24c.5.04.98.11,1.47.19h0c.49.08.97.2,1.44.32.04.01.09.02.13.04.47.13.93.28,1.38.46h0c.11.04.23.08.34.12h0c.16-.02.32-.03.49-.04-.26-.24-.54-.44-.82-.65h0c-.44-.33-.9-.62-1.4-.86h0c-.49-.25-1.01-.45-1.55-.61h0s0,0,0,0c-.56-.17-1.15-.28-1.75-.34-.13-.01-.25-.05-.39-.06l-.35.33c.26.26.5.53.74.8.09.1.19.2.28.31Z"/><path class="cls-2" d="M153.2,42.92h0c-.49-.36-.95-.76-1.39-1.18-.21-.19-.41-.38-.61-.59-.45-.47-.9-.95-1.29-1.47-.27-.07-.54-.15-.8-.23-.03.13-.06.26-.08.39,0,.03-.01.05-.02.08.13.17.29.33.44.49.26.29.53.56.81.81.01.01.02.02.04.03.29.25.58.48.9.7.32.21.64.42.98.59.35.18.71.35,1.09.48l-.06-.12h0Z"/><path class="cls-2" d="M149.14,28.29c-.25.31-.48.64-.69.98-.04.06-.06.13-.1.19-.17.28-.33.57-.46.88h0c-.13.29-.24.59-.34.9-.09.28-.16.56-.23.85h0c-.05.2-.1.39-.14.59.11.71.27,1.39.47,2.06.55.63,1.16,1.19,1.8,1.72.1.08.19.18.3.26.22-.52.48-1.01.77-1.49.21-.38.44-.74.68-1.09h0c.26-.38.51-.78.8-1.14h0s0,0,0,0c.06-.31.15-.61.23-.91.16-.6.36-1.18.59-1.75.28-.69.61-1.37.98-2.01-.43-.15-.87-.27-1.31-.37-.42-.1-.86-.18-1.29-.24h0c-.21-.03-.42-.08-.64-.1-.38.16-.75.35-1.11.53-.1.05-.21.09-.31.15Z"/><path class="cls-2" d="M150.52,27.37c.22-.09.45-.15.67-.23h0c.49-.18.99-.34,1.51-.47.54-.14,1.1-.26,1.67-.34.3-.04.6-.07.9-.09h0s0,0,0,0c.32-.38.66-.75,1.02-1.11l-.35-.33c-.51.03-1.01.11-1.49.22-.17.04-.34.09-.51.14-.3.08-.6.18-.89.29-.2.08-.39.16-.58.24-.25.12-.49.26-.73.4-.18.11-.37.2-.54.32h0c-.41.28-.8.58-1.16.91.16.01.32.03.48.04h0s0,0,0,0Z"/><path class="cls-2" d="M152.04,38.19c1.37.72,2.85,1.24,4.42,1.51,1.57-.28,3.06-.79,4.42-1.51,0-.03,0-.06,0-.1.08-.63.13-1.27.13-1.92,0-1.06-.11-2.09-.31-3.09-.29-.35-.6-.69-.92-1.01h0c-.73-.74-1.55-1.41-2.42-1.99-.3-.2-.6-.4-.91-.57h0s0,0,0,0c-.44.25-.86.52-1.26.81-.74.52-1.43,1.11-2.06,1.75-.32.32-.63.66-.92,1.02-.2,1-.31,2.03-.31,3.09,0,.65.05,1.29.13,1.92,0,.03,0,.06,0,.09Z"/><path class="cls-2" d="M148.9,38.2h0s-.03-.07-.05-.1c-.29-.51-.56-1.03-.8-1.57-.24-.54-.45-1.1-.62-1.67h0s0,0,0,0l-.37-.45c.02.93.17,1.83.45,2.67h0c.11.35.25.69.4,1.03.13.29.28.57.44.84.19.07.39.14.59.21.05-.21.11-.43.17-.64l-.19-.32Z"/><path class="cls-2" d="M159.14,40.18h-.02c-.45,0-.89-.02-1.33-.06-.14-.01-.28-.04-.42-.05-.3-.03-.61-.07-.91-.12h0s0,0,0,0c-.44.08-.88.13-1.33.17-.44.04-.89.06-1.35.06s-.92-.02-1.36-.06c.24.92.57,1.8.97,2.64.28.2.57.4.87.58.71.17,1.44.26,2.2.26.31,0,.61-.02.91-.05h0c.44-.04.88-.11,1.3-.21.15-.1.3-.2.45-.3.14-.09.28-.18.42-.28.4-.84.73-1.73.97-2.64-.45.04-.9.06-1.36.06Z"/><path class="cls-2" d="M164.58,38.94c.16-.27.3-.56.44-.84h0c.1-.22.19-.46.27-.69h0c.04-.11.09-.22.13-.34h0c.27-.84.42-1.74.44-2.67l-.38.45h0s0,0,0,0c-.06.18-.14.35-.2.53-.33.94-.72,1.85-1.21,2.7v.02s-.04.07-.06.1h0s-.19.32-.19.32c.06.21.12.42.17.64.2-.07.4-.14.59-.21Z"/><path class="cls-2" d="M163.18,36.71c.76-.59,1.46-1.25,2.1-1.98,0-.02,0-.04.01-.06.19-.65.35-1.32.45-2.01-.07-.41-.16-.81-.28-1.2-.12-.39-.26-.77-.43-1.13-.15-.33-.32-.65-.51-.95-.02-.04-.04-.07-.06-.11-.21-.34-.44-.67-.69-.98-.46-.25-.93-.48-1.42-.68l-.3.04h0s-.1.01-.1.01c-.98.13-1.93.36-2.84.67.38.64.7,1.31.98,2.01h0s0,0,0,0c.23.57.43,1.15.59,1.75.08.3.17.6.23.91.42.51.79,1.05,1.14,1.61.42.67.8,1.37,1.11,2.11Z"/><path class="cls-2" d="M163.9,39.85c-.03-.13-.05-.26-.08-.39-.26.08-.53.16-.8.23-.04.06-.1.1-.14.16-.25.32-.54.62-.81.92h0c-.32.35-.65.68-.99,1-.44.4-.88.8-1.36,1.14h0s0,0,0,0l-.06.12c.43-.16.85-.35,1.26-.56h.01c.4-.22.78-.47,1.14-.73.7-.52,1.32-1.13,1.85-1.81,0-.03-.01-.05-.02-.08Z"/></svg>